<svg width="119.678" height="115.395" viewBox="0 0 31.665 30.532" version="1.1" id="svg1" xmlns="http://www.w3.org/2000/svg"><g id="layer1" transform="translate(-63.382 -102.597)"><g id="g1" transform="matrix(.5387 0 0 .5387 24.328 10.773)"><path style="-inkscape-font-specification:&quot;Cascadia Code Bold&quot;;stroke-width:.483982px;font-family:Cascadia Code;font-size:46.4624px;font-weight:700" d="M104.96 249.64q-12.274 0-12.274-16.335 0-16.788 12.274-16.788 12.273 0 12.273 16.788 0 16.334-12.273 16.334zm0-5.718q5.99 0 5.99-10.617 0-11.094-5.99-11.094t-5.99 11.094q0 10.617 5.99 10.617z" id="text1-1-8-6" transform="scale(1.1038 .90596)" aria-label="O"/><path style="-inkscape-font-specification:&quot;Cascadia Code Bold&quot;;stroke-width:.501194px;font-family:Cascadia Code;font-size:48.1147px;font-weight:700" d="m68.961 211.5.423-6.226q3.336 0 5.756-1.386 2.443-1.386 4.017-3.735 1.598-2.35 2.35-5.286.775-2.96.775-6.109h6.296q0 4.44-1.316 8.528-1.315 4.088-3.852 7.307-2.514 3.195-6.156 5.05-3.641 1.857-8.293 1.857zm-3.36 10.619v-33.36h6.203v33.36zm16.916 0-6.696-14.777 5.78-2.397 8.575 17.174z" id="text1-1-8-7-1" transform="scale(1.10574 .90437)" aria-label="K"/><path style="-inkscape-font-specification:&quot;Cascadia Code Bold&quot;;stroke-width:.460799px;font-family:Cascadia Code;font-size:44.2367px;font-weight:700" d="M179.88-81.955v-30.672h5.702v30.672zm0 0v-5.25h21.038v5.25z" id="text1-4-8-0-5" transform="matrix(0 1.13046 -.8846 0 0 0)" aria-label="L"/><path style="-inkscape-font-specification:&quot;Cascadia Code Bold&quot;;stroke-width:.501194px;font-family:Cascadia Code;font-size:48.1147px;font-weight:700" d="M154.154-111.797v-33.36h6.202v33.36zm0 0v-5.709h22.883v5.709zm0-13.838v-5.732h18.654v5.732zm0-13.814v-5.709h22.883v5.709z" id="text1-4-8-2-5-9" transform="matrix(0 1.10574 -.90437 0 0 0)" aria-label="E"/></g></g></svg>