<?xml version="1.0" encoding="UTF-8" standalone="no"?>
<!-- Created with Inkscape (http://www.inkscape.org/) -->

<svg
   width="210mm"
   height="297mm"
   viewBox="0 0 210 297"
   version="1.1"
   id="svg1"
   sodipodi:docname="Logo.svg"
   inkscape:version="1.3.2 (091e20e, 2023-11-25, custom)"
   xmlns:inkscape="http://www.inkscape.org/namespaces/inkscape"
   xmlns:sodipodi="http://sodipodi.sourceforge.net/DTD/sodipodi-0.dtd"
   xmlns="http://www.w3.org/2000/svg"
   xmlns:svg="http://www.w3.org/2000/svg">
  <sodipodi:namedview
     id="namedview1"
     pagecolor="#ffffff"
     bordercolor="#000000"
     borderopacity="0.25"
     inkscape:showpageshadow="2"
     inkscape:pageopacity="0.0"
     inkscape:pagecheckerboard="0"
     inkscape:deskcolor="#d1d1d1"
     inkscape:document-units="mm"
     inkscape:zoom="1.0449705"
     inkscape:cx="397.1404"
     inkscape:cy="561.25986"
     inkscape:window-width="2560"
     inkscape:window-height="1369"
     inkscape:window-x="-8"
     inkscape:window-y="-8"
     inkscape:window-maximized="1"
     inkscape:current-layer="layer1" />
  <defs
     id="defs1" />
  <g
     inkscape:label="Capa 1"
     inkscape:groupmode="layer"
     id="layer1">
    <g
       id="g1"
       transform="translate(-2.2787725,-62.286447)">
      <path
         style="font-weight:bold;font-size:46.4624px;font-family:'Cascadia Code';-inkscape-font-specification:'Cascadia Code Bold';stroke-width:0.483982"
         d="m 104.95996,249.63948 q -12.273513,0 -12.273513,-16.33444 0,-16.78817 12.273513,-16.78817 12.27352,0 12.27352,16.78817 0,16.33444 -12.27352,16.33444 z m 0,-5.71705 q 5.9893,0 5.9893,-10.61739 0,-11.0938 -5.9893,-11.0938 -5.989292,0 -5.989292,11.0938 0,10.61739 5.989292,10.61739 z"
         id="text1-1-8-6"
         transform="scale(1.1038014,0.90596007)"
         aria-label="O" />
      <path
         style="font-weight:bold;font-size:48.1147px;font-family:'Cascadia Code';-inkscape-font-specification:'Cascadia Code Bold';stroke-width:0.501194"
         d="m 68.96101,211.49991 0.422884,-6.22578 q 3.336077,0 5.755909,-1.38612 2.443324,-1.38611 4.017389,-3.73547 1.597559,-2.34935 2.349351,-5.28603 0.775285,-2.96019 0.775285,-6.10832 h 6.29626 q 0,4.44028 -1.315636,8.52815 -1.315637,4.08787 -3.852935,7.30648 -2.513805,3.19511 -6.155299,5.0511 -3.641493,1.85599 -8.293208,1.85599 z m -3.359571,10.61906 v -33.36078 h 6.202286 v 33.36078 z m 16.915324,0 -6.695649,-14.77741 5.779403,-2.39634 8.575129,17.17375 z"
         id="text1-1-8-7-1"
         transform="scale(1.1057368,0.90437435)"
         aria-label="K" />
      <path
         style="font-weight:bold;font-size:44.2367px;font-family:'Cascadia Code';-inkscape-font-specification:'Cascadia Code Bold';stroke-width:0.460799"
         d="m 179.8795,-81.955482 v -30.671928 h 5.70239 v 30.671928 z m 0,0 v -5.248788 h 21.03835 v 5.248788 z"
         id="text1-4-8-0-5"
         transform="matrix(0,1.1304602,-0.8845955,0,0,0)"
         aria-label="L" />
      <path
         style="font-weight:bold;font-size:48.1147px;font-family:'Cascadia Code';-inkscape-font-specification:'Cascadia Code Bold';stroke-width:0.501194"
         d="m 154.1539,-111.7971 v -33.36077 h 6.20228 v 33.36077 z m 0,0 v -5.70892 h 22.88267 v 5.70892 z m 0,-13.83767 v -5.73242 h 18.65384 v 5.73242 z m 0,-13.81418 v -5.70892 h 22.88267 v 5.70892 z"
         id="text1-4-8-2-5-9"
         transform="matrix(0,1.1057368,-0.90437435,0,0,0)"
         aria-label="E" />
    </g>
    <text
       xml:space="preserve"
       style="font-style:normal;font-variant:normal;font-weight:bold;font-stretch:normal;font-size:25.4px;line-height:normal;font-family:'Cascadia Code';-inkscape-font-specification:'Cascadia Code Bold';font-variant-ligatures:normal;font-variant-position:normal;font-variant-caps:normal;font-variant-numeric:normal;font-variant-alternates:normal;font-variant-east-asian:normal;font-feature-settings:normal;text-indent:0;text-align:start;text-decoration-line:none;text-decoration-style:solid;text-decoration-color:#000000;letter-spacing:normal;word-spacing:normal;text-transform:none;writing-mode:lr-tb;direction:ltr;text-orientation:mixed;dominant-baseline:auto;baseline-shift:baseline;white-space:normal;opacity:1;vector-effect:none;fill:#000000;fill-opacity:1;stroke-width:0.264583;stroke-linecap:butt;stroke-linejoin:miter;stroke-miterlimit:4;stroke-dasharray:none;stroke-dashoffset:0;stroke-opacity:1;-inkscape-stroke:none"
       x="145.84143"
       y="198.25319"
       id="text3"><tspan
         sodipodi:role="line"
         id="tspan3"
         style="stroke-width:0.264583"
         x="145.84143"
         y="198.25319" /></text>
  </g>
</svg>
